<?xml version="1.0" standalone="no"?>
<!DOCTYPE svg PUBLIC "-//W3C//DTD SVG 20010904//EN"
 "http://www.w3.org/TR/2001/REC-SVG-20010904/DTD/svg10.dtd">
<svg version="1.0" xmlns="http://www.w3.org/2000/svg"
 width="220.000000pt" height="220.000000pt" viewBox="0 0 220.000000 220.000000"
 preserveAspectRatio="xMidYMid meet">
<metadata>
Created by potrace 1.10, written by Peter Selinger 2001-2011
</metadata>
<g transform="translate(0.000000,220.000000) scale(0.100000,-0.100000)"
fill="#000000" stroke="none">
<path d="M610 2175 c0 -14 6 -27 13 -29 29 -9 97 -13 97 -6 0 10 -38 23 -70
24 -17 1 -25 6 -24 19 1 9 -2 17 -7 17 -5 0 -9 -11 -9 -25z"/>
<path d="M686 2185 c4 -8 11 -15 16 -15 5 0 21 -9 35 -20 18 -14 41 -20 79
-20 60 0 104 -16 104 -38 0 -11 7 -13 33 -7 64 14 290 15 322 0 29 -13 29 -13
6 -14 -20 -1 -15 -6 26 -27 63 -31 123 -94 123 -130 0 -18 4 -23 13 -17 22 14
38 12 50 -8 14 -22 29 -26 21 -5 -4 11 0 13 15 9 12 -3 21 -9 21 -14 0 -5 5
-9 10 -9 6 0 10 7 10 15 0 8 -14 17 -35 21 -22 4 -40 15 -47 28 -18 34 -106
107 -142 116 -11 3 -22 12 -24 19 -5 14 28 12 71 -4 9 -4 17 -3 17 3 0 13 -35
22 -85 22 -30 0 -36 3 -25 10 12 8 8 10 -15 11 -16 1 -38 1 -49 0 -10 0 -24 3
-31 9 -7 5 -59 12 -116 15 -94 5 -102 5 -79 -9 14 -8 29 -12 34 -9 5 4 6 1 2
-5 -14 -23 -121 -10 -112 13 6 17 -25 25 -107 25 -74 0 -84 15 -16 26 22 4 42
11 46 17 4 7 -2 8 -18 3 -47 -15 -116 -18 -123 -7 -11 17 -36 14 -30 -4z"/>
<path d="M2083 2174 c0 -15 3 -21 7 -15 5 9 11 7 21 -5 12 -15 12 -17 0 -9
-11 6 -13 4 -8 -9 5 -13 3 -17 -7 -13 -9 4 -12 0 -9 -12 3 -11 -1 -18 -11 -18
-9 0 -16 4 -16 8 0 4 -8 10 -18 13 -10 4 -27 14 -38 24 -11 9 -30 23 -42 29
-27 16 -40 -1 -19 -25 13 -15 13 -19 1 -30 -32 -29 -7 -42 41 -20 24 11 29 8
68 -30 64 -63 147 -92 147 -52 0 17 -7 20 -44 20 -25 0 -47 4 -51 10 -3 5 8
31 25 57 l30 48 -33 27 c-40 34 -44 34 -44 2z"/>
<path d="M1591 2151 c-7 -5 -31 -6 -52 -4 -23 3 -39 1 -39 -4 0 -23 34 -36
104 -41 62 -4 73 -2 73 11 0 9 -7 16 -16 15 -34 -2 -50 3 -53 17 -2 10 -8 12
-17 6z"/>
<path d="M155 2128 c1 -11 16 -29 33 -40 41 -26 41 -16 -1 26 -28 27 -33 30
-32 14z"/>
<path d="M1470 2079 c0 -27 -21 -41 -33 -21 -2 4 -2 1 0 -6 2 -9 -3 -11 -17
-7 -24 7 -27 -10 -4 -19 23 -9 36 -7 29 4 -3 6 -5 10 -3 10 9 0 231 -112 267
-134 22 -15 41 -22 41 -16 0 5 26 27 59 49 102 69 137 130 91 159 -19 12 -20
11 -14 -14 5 -19 4 -25 -5 -20 -6 4 -11 1 -11 -9 0 -9 -4 -14 -9 -10 -5 3 -13
0 -17 -6 -4 -7 -3 -9 3 -6 6 4 14 0 17 -9 3 -8 2 -13 -3 -10 -4 3 -16 -3 -26
-14 -10 -11 -24 -20 -31 -20 -7 0 -19 -6 -26 -13 -17 -17 -72 -32 -63 -18 3 6
0 8 -8 5 -8 -3 -20 2 -27 11 -7 8 -20 15 -29 15 -9 0 -29 7 -45 15 -15 8 -33
12 -39 8 -6 -3 -7 -1 -3 5 4 7 3 12 -3 12 -6 0 -8 7 -4 17 5 13 2 15 -15 11
-12 -4 -22 -2 -22 4 0 6 22 8 58 4 142 -15 167 -16 152 -7 -8 5 -56 13 -106
19 -50 5 -105 16 -123 25 l-31 15 0 -29z"/>
<path d="M1696 2101 c14 -15 64 -25 64 -13 0 10 -32 22 -59 22 -10 0 -11 -3
-5 -9z"/>
<path d="M640 2090 c0 -5 5 -10 11 -10 18 0 59 -37 51 -45 -4 -5 -2 -5 5 -1 6
3 16 -1 21 -9 8 -15 10 -15 22 0 11 13 10 15 -4 9 -11 -4 -16 -1 -16 13 0 12
-14 24 -40 36 -47 20 -50 20 -50 7z"/>
<path d="M43 2073 c-25 -9 -12 -23 27 -29 24 -4 40 -12 40 -20 0 -8 10 -14 24
-14 13 0 26 -6 29 -12 2 -7 8 -10 12 -6 10 10 -13 38 -31 38 -8 0 -14 3 -14 8
0 8 -57 43 -68 41 -4 0 -13 -3 -19 -6z"/>
<path d="M1009 2076 c-2 -2 -40 -9 -83 -15 -44 -6 -85 -16 -93 -22 -7 -6 -13
-8 -13 -5 0 10 -122 -56 -138 -74 -10 -11 -15 -12 -18 -2 -7 14 -34 17 -34 3
0 -6 5 -13 12 -17 7 -5 8 -2 3 7 -5 8 -4 10 0 6 12 -11 15 -38 3 -31 -5 3 -18
-2 -28 -11 -16 -14 -23 -15 -34 -6 -11 9 -16 9 -22 0 -4 -7 -3 -9 4 -5 6 3 13
2 16 -2 3 -5 -12 -26 -33 -46 -22 -21 -41 -33 -45 -28 -3 6 6 20 20 31 15 12
22 21 17 21 -11 0 -63 -53 -63 -64 0 -5 7 -6 15 -2 8 3 15 1 15 -4 0 -5 13
-23 29 -39 22 -23 31 -26 35 -16 3 8 -6 25 -20 38 -22 21 -23 25 -10 36 17 14
40 6 30 -11 -7 -10 13 -28 31 -28 6 0 3 5 -5 10 -12 8 -11 10 7 10 24 0 39 15
24 24 -5 4 -12 2 -16 -4 -9 -15 -22 -12 -29 6 -4 12 -2 15 9 11 8 -4 17 -2 20
3 4 6 1 10 -4 10 -6 0 -11 5 -11 12 0 6 10 2 23 -10 l24 -22 18 20 c10 11 13
20 7 20 -6 0 -14 -5 -17 -10 -5 -8 -11 -7 -21 1 -13 10 -10 17 18 43 18 17 53
43 78 57 l45 27 10 -34 c9 -31 11 -32 30 -17 17 13 17 15 2 10 -22 -8 -36 21
-16 34 23 14 32 10 18 -8 -12 -14 -12 -16 0 -8 9 5 19 2 27 -10 15 -20 1 -30
-133 -96 -34 -17 -65 -39 -68 -48 -11 -33 -99 -116 -120 -113 -14 2 -16 0 -7
-6 9 -6 10 -15 3 -35 -12 -31 -16 -32 -51 -13 l-24 14 33 31 c22 20 40 30 51
26 31 -10 32 13 1 31 -19 11 -27 23 -23 32 10 27 -17 3 -34 -30 -11 -21 -18
-27 -24 -19 -5 9 -9 8 -13 -4 -5 -11 -3 -14 5 -9 8 5 9 1 4 -12 -43 -110 -41
-188 6 -259 26 -39 88 -88 88 -70 0 4 12 -3 26 -14 15 -11 31 -18 36 -15 6 4
13 1 17 -5 4 -6 44 -14 89 -18 71 -5 82 -4 82 10 0 20 39 44 41 25 1 -7 1 -19
0 -25 -1 -7 4 -11 11 -9 7 2 42 10 76 17 50 9 66 17 74 35 9 19 14 21 33 12
19 -8 35 -4 95 27 46 25 67 41 59 46 -22 13 9 41 31 29 15 -8 29 1 79 50 65
64 80 68 31 8 -37 -44 -135 -120 -204 -158 -117 -64 -306 -99 -429 -80 -81 12
-149 38 -140 53 3 6 1 7 -5 3 -16 -9 -66 18 -91 50 -12 15 -21 22 -21 16 0 -6
5 -14 10 -17 6 -4 7 -12 4 -18 -4 -7 -4 -9 1 -5 4 4 22 -4 39 -17 55 -42 119
-64 231 -80 85 -12 122 -13 179 -4 39 6 75 15 80 20 6 5 17 -6 28 -29 18 -38
21 -36 18 10 -1 22 2 27 14 22 9 -3 16 -1 16 5 0 6 8 11 18 11 9 0 33 11 52
24 44 29 75 39 100 31 16 -5 17 -9 7 -20 -6 -7 -14 -13 -17 -12 -6 2 -53 -24
-60 -32 -3 -4 -16 -12 -30 -19 -25 -11 -25 -11 5 -5 17 3 51 18 78 34 l47 29
25 -56 c23 -52 26 -55 41 -39 9 9 19 14 22 11 7 -8 -18 -36 -34 -36 -14 0 -80
-36 -106 -58 -16 -13 -18 -13 -18 0 0 11 -7 14 -25 11 -15 -3 -34 3 -51 16
-26 21 -49 28 -41 14 3 -5 -3 -16 -13 -26 -16 -16 -17 -16 -15 12 1 26 -1 29
-17 20 -22 -12 -24 -64 -5 -102 13 -24 14 -24 25 -6 7 10 12 29 12 42 0 13 5
28 11 34 14 14 49 5 49 -13 0 -8 -6 -11 -15 -8 -8 4 -15 1 -15 -6 0 -12 15
-10 52 5 11 4 24 -1 39 -16 14 -14 24 -18 27 -11 5 17 100 82 118 82 9 0 23 8
31 18 10 12 13 13 10 2 -5 -20 35 -50 67 -50 14 0 40 13 58 29 29 26 33 35 33
79 0 41 5 56 28 82 30 33 30 54 0 27 -10 -8 -22 -16 -26 -16 -5 0 -19 -11 -32
-25 -13 -14 -19 -26 -12 -26 9 0 8 -3 -1 -9 -10 -6 -9 -11 4 -22 16 -12 17
-12 11 4 -3 9 -2 17 2 17 5 0 11 -7 15 -15 3 -8 1 -15 -5 -15 -6 0 -9 -6 -6
-14 3 -8 -3 -24 -14 -37 -21 -24 -26 -10 -8 23 6 11 8 22 5 25 -3 3 -10 -5
-15 -18 -6 -14 -10 -17 -10 -8 -1 8 4 20 11 27 7 7 8 12 2 12 -5 0 -17 -9 -27
-20 -15 -18 -15 -21 -2 -26 8 -4 15 -18 15 -33 l-1 -26 -15 28 c-9 16 -18 26
-21 23 -3 -3 -1 -12 5 -19 12 -14 7 -27 -10 -27 -5 0 -6 4 -3 10 3 6 -1 7 -9
4 -11 -4 -16 0 -16 14 0 24 -21 43 -50 45 -17 1 -21 6 -17 24 2 13 0 26 -4 29
-8 5 -13 -10 -10 -29 1 -5 -3 -6 -9 -2 -6 3 -8 10 -5 15 3 4 -1 10 -7 13 -10
3 -8 10 5 25 18 20 47 20 47 0 0 -5 -4 -6 -10 -3 -5 3 -10 2 -10 -4 0 -5 4
-12 9 -15 11 -7 33 18 24 27 -7 8 -3 8 42 12 34 2 58 -12 48 -28 -3 -5 -1 -7
4 -4 21 13 21 43 1 44 -11 1 -26 7 -33 13 -12 10 -9 18 16 50 17 21 28 43 25
49 -4 7 -1 8 8 5 9 -3 16 -10 16 -15 0 -5 5 -9 10 -9 6 0 10 6 9 13 -2 21 13
57 22 51 5 -3 5 -13 -1 -24 -15 -28 -12 -36 6 -14 15 18 15 18 11 -4 -5 -19
-3 -21 9 -11 11 9 14 8 14 -8 0 -28 -10 -34 -27 -17 -9 8 -18 12 -21 9 -4 -3
0 -10 7 -14 10 -7 8 -12 -10 -25 -33 -23 -11 -20 42 6 24 12 56 20 72 19 23
-2 30 3 41 31 26 60 90 104 163 110 l52 5 30 -61 c44 -88 57 -189 42 -321 -13
-111 -57 -284 -97 -372 -41 -94 -145 -259 -210 -334 -35 -40 -61 -76 -58 -79
3 -3 18 9 34 27 16 17 31 29 34 26 10 -10 37 20 31 35 -4 10 0 13 13 10 20 -6
60 18 49 28 -4 4 -14 1 -24 -7 -12 -10 -10 -4 6 18 12 19 19 38 15 45 -4 7 2
4 14 -6 19 -17 22 -17 22 -3 0 10 5 17 10 17 15 0 12 -58 -4 -88 -7 -15 -22
-44 -32 -64 -10 -20 -26 -39 -36 -41 -10 -3 -16 -11 -13 -19 6 -15 -122 -124
-133 -114 -3 4 3 13 14 20 10 8 17 17 14 20 -3 3 -23 -12 -45 -33 -22 -21 -63
-53 -92 -73 -29 -20 -49 -38 -46 -42 4 -3 0 -6 -7 -6 -7 0 -43 -17 -79 -37
-36 -20 -73 -38 -81 -39 -8 -2 -46 -12 -85 -23 -90 -27 -183 -27 -271 0 -60
18 -76 29 -129 84 -33 35 -68 82 -77 105 l-17 42 25 -5 c13 -2 27 0 30 4 5 9
1 11 -33 13 -10 0 -21 7 -25 16 -15 33 -8 188 12 264 15 60 17 82 8 101 -6 14
-15 25 -20 25 -5 0 -4 -9 2 -19 13 -25 13 -61 0 -61 -5 0 -7 6 -4 14 3 8 1 23
-5 33 -9 15 -10 13 -5 -11 5 -21 4 -27 -5 -22 -16 10 -14 -3 4 -20 17 -17 21
-39 5 -29 -6 3 -11 -6 -11 -22 -3 -41 -4 -54 -12 -93 -4 -19 -3 -66 3 -105 6
-38 12 -86 13 -106 1 -20 7 -35 12 -33 6 2 21 -19 34 -46 13 -28 27 -50 31
-50 12 0 70 -53 65 -60 -8 -13 85 -41 169 -53 83 -11 216 3 244 25 8 7 12 7
12 0 0 -13 -44 -26 -144 -43 -91 -15 -211 2 -296 42 -67 31 -74 34 -66 20 3
-5 -12 -11 -33 -13 -34 -3 -38 -1 -28 11 10 12 9 14 -6 8 -10 -4 -21 -7 -23
-7 -3 0 -2 -5 2 -12 5 -7 3 -8 -5 -4 -7 5 -10 14 -8 20 3 7 -1 13 -8 13 -7 0
-11 -6 -8 -13 2 -6 0 -15 -6 -19 -6 -3 -11 -1 -11 6 0 10 -3 10 -12 1 -20 -20
-3 -24 84 -23 69 1 92 -3 136 -24 30 -14 57 -23 61 -21 4 3 35 -1 69 -9 34 -7
62 -9 62 -4 0 5 12 4 27 -2 14 -5 29 -6 32 -2 3 4 17 8 31 7 14 0 30 2 35 5 6
3 19 7 30 7 11 1 35 7 53 12 25 8 32 8 29 -1 -2 -6 -14 -14 -28 -18 -20 -6
-21 -7 -4 -8 11 0 32 5 46 13 15 7 62 17 106 20 44 4 90 9 104 12 13 3 57 8
97 11 72 6 84 15 49 37 -13 8 -20 8 -26 -2 -10 -17 -81 -29 -81 -13 0 6 -5 11
-10 11 -6 0 -9 -6 -8 -12 2 -8 -7 -12 -24 -10 -14 2 -29 -2 -33 -7 -3 -6 -27
-11 -53 -10 l-47 1 33 11 c19 6 31 15 28 22 -3 8 2 11 15 8 12 -4 19 0 19 9 0
15 44 58 59 58 4 0 16 9 26 20 10 12 24 19 31 16 8 -3 11 1 7 11 -5 12 -1 14
15 8 18 -5 22 -2 22 13 0 23 10 28 68 31 28 1 41 -2 37 -9 -4 -6 7 -10 29 -10
19 0 38 5 41 11 4 6 13 8 20 5 8 -3 19 2 25 10 10 11 10 14 -1 14 -8 0 -4 8 9
20 12 11 26 20 31 20 6 0 8 6 5 13 -3 8 3 20 12 28 12 9 15 10 10 2 -4 -8 -1
-13 8 -13 9 0 13 6 10 13 -4 10 3 12 28 9 29 -4 30 -6 13 -14 -13 -5 -3 -7 29
-3 27 3 65 5 85 5 27 0 32 3 21 10 -12 8 -9 10 13 10 28 0 37 -14 15 -24 -7
-3 1 -4 17 0 42 8 19 -15 -27 -27 -28 -7 -26 -8 19 -5 32 2 54 -1 57 -8 2 -6
5 -3 5 6 1 9 -3 20 -9 23 -5 3 -10 15 -10 25 0 15 10 20 46 26 27 4 41 10 34
14 -9 6 -9 9 1 13 8 3 1 6 -16 7 -28 2 -29 2 -6 9 14 4 27 13 29 20 3 10 0 11
-9 5 -8 -5 -25 -10 -39 -12 -14 -1 -32 -5 -40 -8 -12 -4 -13 -6 0 -14 8 -5 11
-12 7 -16 -4 -4 -13 1 -20 11 -12 15 -15 16 -20 3 -3 -9 -20 -18 -39 -22 -60
-11 -196 -17 -202 -8 -3 5 5 8 17 8 13 -1 23 6 25 16 2 10 -2 18 -8 18 -6 0
-9 -4 -6 -9 3 -5 -1 -11 -9 -14 -10 -4 -12 -1 -8 11 5 13 3 14 -6 6 -7 -6 -13
-18 -15 -27 -5 -37 -99 -137 -129 -137 -11 0 -15 -4 -11 -12 5 -7 3 -8 -6 -3
-10 6 -7 12 11 26 13 10 27 19 32 19 4 0 7 5 7 12 0 6 -7 4 -18 -5 -10 -10
-29 -17 -41 -17 -12 0 -19 -4 -16 -10 7 -11 -11 -12 -37 -2 -14 6 -12 10 10
26 14 11 22 13 17 6 -6 -10 -4 -12 9 -7 10 4 21 7 25 7 3 0 17 21 30 48 13 26
31 63 41 82 40 82 114 202 127 207 22 9 3 23 -23 17 -15 -4 -24 -2 -24 6 0 6
-4 8 -10 5 -12 -7 -14 -26 -2 -24 29 5 32 -3 10 -29 l-23 -28 -18 34 c-10 19
-16 37 -13 40 3 3 6 -1 6 -8 0 -24 31 13 34 41 1 13 12 40 24 59 12 19 20 41
17 48 -3 7 -1 11 4 7 5 -3 12 8 16 24 3 16 12 35 20 41 8 6 12 17 9 25 -3 7 2
27 11 44 9 18 13 36 10 41 -3 5 0 12 6 15 5 4 8 13 5 21 -3 8 -2 14 2 14 4 0
8 12 8 28 1 15 7 77 13 137 7 61 14 134 17 163 6 56 29 72 40 27 3 -14 9 -23
14 -20 4 2 6 -25 5 -60 -2 -36 1 -65 6 -65 5 0 9 -9 9 -21 0 -14 -5 -19 -14
-16 -10 4 -13 1 -9 -9 12 -31 33 -5 33 41 0 13 -6 26 -12 28 -10 4 -10 7 0 15
26 18 -19 196 -60 235 -10 10 -18 23 -18 28 0 35 -111 128 -153 129 -16 0 -45
7 -65 16 -102 44 -170 81 -195 106 -15 15 -28 28 -30 28 -1 0 -2 -35 -2 -77 0
-66 -5 -88 -31 -143 -17 -36 -55 -94 -84 -130 -30 -36 -45 -58 -35 -50 11 8
23 20 27 25 5 6 8 6 8 -1 0 -17 -37 -47 -49 -39 -6 3 -31 -10 -56 -31 -25 -20
-45 -32 -45 -27 0 6 -9 20 -20 33 l-19 22 37 33 c37 34 64 38 40 7 -10 -14
-10 -15 1 -5 7 6 21 9 30 6 9 -4 6 2 -7 13 l-24 20 42 49 c67 82 102 163 106
247 l3 73 -8 -70 c-8 -67 -37 -142 -75 -190 -22 -28 -18 -6 5 30 32 51 41 78
46 141 6 70 -7 120 -41 157 -13 14 -21 28 -18 31 3 3 -2 6 -10 6 -9 0 -18 6
-21 14 -7 19 -80 51 -146 65 -50 11 -163 15 -172 7z m15 -30 c-3 -9 -13 -12
-22 -9 -13 4 -12 2 3 -11 11 -10 14 -15 8 -11 -7 3 -13 1 -13 -4 0 -6 5 -11
10 -11 6 0 10 -7 10 -17 0 -9 -2 -14 -5 -11 -3 3 -38 -1 -77 -8 -40 -8 -72
-13 -74 -11 -1 1 -8 16 -17 32 l-15 31 30 -1 c21 0 33 -7 42 -24 11 -20 14
-21 19 -7 5 12 3 15 -5 10 -7 -5 -9 -2 -5 9 3 9 -1 18 -10 21 -25 10 -8 18 54
26 32 4 61 8 65 9 4 0 5 -5 2 -13z m51 -6 c3 -5 -2 -11 -12 -11 -17 -1 -17 -2
0 -6 28 -7 22 -43 -8 -43 -31 0 -33 19 -2 21 l22 2 -22 4 c-22 4 -30 23 -16
36 10 10 31 8 38 -3z m110 0 c4 -6 14 -10 23 -9 30 3 46 -1 38 -8 -11 -11 -50
-10 -59 2 -4 6 -5 -8 -2 -30 5 -37 5 -38 -9 -20 -9 11 -16 14 -16 8 0 -7 -5
-13 -11 -13 -8 0 -8 4 -2 13 17 21 23 47 11 44 -6 -1 -13 4 -15 11 -6 15 33
17 42 2z m-70 -10 c-19 -8 -19 -9 2 -9 16 -1 20 -6 16 -21 -3 -11 -14 -20 -24
-20 -24 0 -25 20 -1 21 16 1 16 2 0 6 -26 7 -22 33 5 32 21 0 21 -1 2 -9z
m161 -42 c4 -7 3 -8 -4 -4 -7 4 -12 5 -12 2 0 -2 -3 -13 -6 -23 -4 -14 -4 -15
4 -4 12 17 32 6 32 -17 0 -14 2 -15 10 -2 6 9 5 17 -3 22 -6 4 -8 10 -5 13 20
21 37 -26 19 -54 -7 -11 -15 -9 -40 10 -17 12 -31 30 -31 39 0 29 23 40 36 18z
m-289 -54 c-21 -14 -35 -29 -31 -32 4 -4 9 -1 11 6 3 6 11 12 19 12 8 0 14 5
14 10 0 6 5 10 10 10 23 0 7 -31 -27 -55 -43 -29 -55 -31 -47 -10 5 11 2 13
-10 9 -11 -4 -16 -1 -16 11 0 9 5 13 10 10 6 -3 10 -1 10 4 0 6 -4 11 -10 11
-5 0 -10 5 -10 11 0 6 9 8 20 4 11 -3 20 -2 20 4 0 10 21 18 55 20 14 1 9 -6
-18 -25z m103 17 c0 -5 -7 -17 -16 -26 -19 -19 -40 -6 -31 19 7 17 47 22 47 7z
m80 1 c0 -13 -38 -41 -46 -34 -4 4 -4 2 0 -5 3 -6 -1 -16 -10 -21 -13 -7 -14
-13 -5 -30 6 -12 15 -21 19 -20 14 4 53 -23 47 -33 -4 -5 -2 -9 4 -9 5 0 8 -6
7 -14 -4 -26 -32 -42 -80 -45 -46 -2 -48 -1 -35 16 12 16 12 16 -8 -1 -22 -18
-22 -18 -36 15 -17 41 -15 46 12 27 12 -8 18 -18 14 -22 -4 -4 0 -4 10 -1 9 4
23 0 32 -9 21 -20 31 -20 39 0 3 9 12 14 20 11 10 -4 13 2 12 18 0 14 -5 20
-10 15 -5 -5 -14 -7 -20 -6 -6 2 -8 1 -3 -1 16 -10 6 -21 -18 -19 -14 0 -25 4
-25 8 0 4 -8 4 -17 1 -16 -6 -16 -5 -4 10 14 18 36 24 26 7 -3 -5 -2 -10 4
-10 17 0 21 17 6 30 -19 15 -56 4 -48 -16 3 -10 0 -12 -10 -8 -33 12 -14 56
46 106 55 46 77 57 77 40z m182 -1 c-10 -6 -9 -10 7 -14 29 -7 26 -33 -6 -62
-16 -14 -46 -40 -68 -60 -38 -33 -39 -35 -13 -31 14 2 35 9 46 15 28 15 32 14
32 -8 0 -21 -47 -35 -66 -20 -7 6 -16 4 -24 -6 -7 -8 -18 -15 -24 -15 -6 0 -4
4 4 10 8 5 11 12 7 16 -4 4 -19 -3 -33 -17 -31 -29 -28 -6 4 27 12 13 22 27
22 32 0 6 7 13 16 16 10 4 13 2 8 -7 -6 -8 -3 -8 9 1 9 8 15 19 14 25 -1 7 7
11 18 9 19 -2 19 -2 2 9 -15 8 -23 7 -38 -7 -16 -14 -23 -15 -45 -5 -35 16
-54 2 -20 -16 15 -8 24 -18 21 -24 -6 -9 -24 -3 -58 23 -18 13 -17 14 2 32 18
16 25 17 48 7 16 -7 30 -8 36 -2 6 6 1 11 -12 16 -12 3 -21 11 -21 16 0 12 0
12 63 -16 45 -19 57 -21 66 -11 6 7 7 17 3 21 -4 5 -1 5 6 1 14 -8 17 10 3 19
-5 3 -12 -4 -16 -15 -4 -11 -11 -18 -16 -15 -5 4 -5 14 1 26 6 10 8 19 5 19
-4 0 -3 5 0 10 3 6 12 10 18 10 8 0 8 -3 -1 -9z m-147 -17 c0 -15 -75 -78 -83
-70 -4 4 8 21 26 37 17 16 32 34 32 40 0 6 6 9 13 7 6 -3 12 -9 12 -14z m-315
-23 c0 -28 -21 -37 -37 -16 -10 15 -10 20 0 27 21 13 37 9 37 -11z m-84 -26
c-20 -17 -24 -25 -13 -25 9 0 19 5 22 10 3 6 13 10 22 10 14 0 13 -3 -3 -21
-19 -22 -19 -22 3 -10 28 14 40 14 25 -1 -7 -7 -12 -22 -12 -34 0 -13 -5 -26
-10 -29 -7 -4 -8 3 -4 22 7 25 6 27 -9 14 -11 -8 -17 -9 -17 -3 0 7 -7 9 -17
5 -11 -4 -12 -8 -5 -11 7 -2 12 -10 12 -18 0 -9 5 -12 13 -8 9 5 8 3 -1 -7
-11 -12 -15 -11 -23 4 -7 12 -17 16 -30 12 -27 -9 -23 10 7 34 15 12 21 21 13
21 -8 0 -31 -16 -52 -35 -31 -29 -42 -33 -53 -24 -18 15 2 43 24 34 8 -3 22 6
34 20 16 21 80 63 98 65 3 0 -8 -11 -24 -25z m224 -10 c-14 -15 -18 -25 -11
-25 10 0 10 -5 -1 -22 -8 -13 -18 -36 -22 -53 -4 -20 -3 -25 3 -16 7 11 11 10
20 -7 10 -18 9 -21 -4 -16 -9 4 -15 1 -15 -7 -1 -8 -10 4 -21 26 l-20 40 27
23 c14 13 24 26 20 29 -3 4 -16 -3 -29 -15 -21 -20 -23 -20 -23 -2 0 10 4 16
8 14 4 -3 8 1 8 8 0 14 46 46 69 47 10 1 7 -7 -9 -24z m-110 -16 c0 -6 10 -42
21 -81 l21 -69 52 5 c28 3 98 8 156 11 58 3 120 9 139 12 25 4 32 2 29 -8 -3
-8 -52 -21 -134 -35 -71 -12 -149 -27 -174 -33 -65 -15 -153 -15 -144 2 6 10
4 10 -7 0 -7 -7 -29 -13 -49 -13 -20 0 -40 -3 -44 -7 -4 -4 -13 -8 -19 -8 -11
-1 -28 -5 -107 -25 -19 -5 -57 -14 -83 -21 -31 -8 -44 -15 -36 -20 7 -4 28 -1
47 7 46 19 52 17 23 -6 -13 -11 -31 -20 -42 -20 -10 0 -21 -4 -24 -10 -3 -5
-12 -10 -18 -10 -7 0 -6 4 3 10 8 5 10 10 4 10 -6 0 -11 10 -10 22 1 17 11 25
41 34 22 7 37 13 33 13 -4 1 15 23 42 50 54 53 70 88 19 40 -30 -28 -49 -37
-49 -21 1 22 94 87 111 76 9 -5 10 -2 6 9 -5 14 -3 15 18 5 36 -16 31 -28 -10
-23 -20 3 -35 0 -35 -5 0 -6 11 -11 25 -11 45 -2 50 -4 50 -14 0 -5 4 -16 8
-22 11 -18 -1 -16 -20 3 -18 18 -64 15 -71 -4 -3 -11 0 -12 16 -3 29 15 39 14
46 -6 5 -11 1 -22 -10 -30 -28 -21 -39 -15 -13 7 19 15 21 19 7 20 -9 0 -25
-10 -35 -23 -10 -12 -26 -21 -35 -19 -10 2 -28 -4 -40 -12 -28 -20 -12 -20 71
-1 35 9 70 23 77 33 8 10 13 12 14 5 0 -7 7 -13 16 -13 14 0 15 2 3 17 -13 15
-12 15 6 6 26 -14 45 -6 38 15 -6 14 -4 15 9 4 26 -21 48 -4 48 37 0 27 -3 32
-10 21 -5 -8 -10 -26 -10 -40 0 -18 -3 -21 -9 -11 -10 16 -51 21 -68 9 -6 -5
-14 -4 -18 2 -4 6 -5 12 -4 14 2 1 21 14 42 30 43 31 63 30 23 -2 -32 -25 -32
-29 -1 -29 21 0 25 5 31 43 3 24 3 51 0 60 -3 9 -4 20 0 25 7 13 34 11 34 -2z
m483 -16 c5 -28 -10 -73 -25 -73 -4 0 -8 7 -8 16 0 8 4 13 8 10 5 -3 9 1 9 8
0 8 -6 12 -14 9 -17 -7 -18 28 -1 45 18 18 25 15 31 -15z m-733 -69 c0 -10
-55 -61 -80 -74 -19 -10 -20 -10 -11 7 17 29 45 59 61 66 21 8 30 8 30 1z
m985 -53 c24 -17 26 -21 12 -27 -9 -3 -14 -10 -11 -15 3 -5 -2 -6 -10 -3 -9 3
-13 10 -10 15 9 15 -30 -4 -43 -20 -7 -9 -13 -11 -13 -6 0 7 -3 7 -8 0 -4 -5
-16 -18 -28 -27 l-20 -18 11 56 c6 30 17 59 24 63 9 6 10 11 2 15 -6 4 -11 12
-11 17 0 10 54 -16 105 -50z m-255 25 c0 -4 -7 -6 -15 -2 -18 7 -20 -5 -2 -23
10 -11 10 -13 0 -7 -9 5 -13 0 -13 -13 0 -12 -5 -21 -11 -21 -5 0 -7 -5 -3
-11 5 -8 2 -9 -12 -1 -12 7 -25 7 -36 1 -10 -6 -23 -7 -28 -4 -15 9 -2 25 14
19 8 -3 17 -1 20 5 4 6 13 8 20 5 8 -3 17 0 22 7 5 8 3 10 -7 4 -11 -7 -11 -5
1 9 13 16 12 20 -3 30 -14 11 -12 13 18 12 19 -1 35 -5 35 -10z m474 -87 c20
-17 36 -38 36 -46 0 -8 4 -12 9 -9 5 3 15 -2 22 -11 11 -12 11 -17 2 -20 -7
-2 -10 -12 -7 -21 2 -9 -1 -6 -8 8 -26 53 -70 100 -93 100 -13 0 -25 -5 -27
-11 -2 -6 -18 -13 -36 -15 -24 -3 -31 0 -26 9 4 6 4 9 -1 5 -4 -4 -15 -2 -24
4 -12 10 -11 7 2 -8 16 -20 16 -22 -3 -39 -17 -15 -22 -16 -37 -4 -11 9 -14
10 -9 2 4 -7 3 -13 -2 -13 -18 0 -20 41 -4 69 15 27 20 28 93 30 74 2 79 1
113 -30z m-1264 7 c0 -15 -21 -26 -51 -26 -17 0 -18 3 -9 20 12 23 60 28 60 6z
m1005 -3 c-20 -15 -20 -15 3 -10 21 5 29 -3 15 -16 -3 -4 -8 -35 -10 -69 -4
-74 -19 -97 -28 -45 -6 32 -10 35 -25 27 -28 -15 -32 -13 -28 18 2 20 9 28 28
30 37 5 50 22 17 22 -15 0 -27 5 -27 10 0 6 6 10 13 10 7 0 18 9 25 20 7 11
18 20 25 20 6 0 3 -8 -8 -17z m-377 -11 c-28 -16 -37 -32 -19 -32 5 0 12 6 15
13 5 9 7 9 12 -1 12 -25 37 -43 53 -38 9 3 -6 -14 -32 -39 -27 -25 -53 -42
-59 -39 -5 4 -3 13 7 24 14 16 14 20 -6 58 -18 34 -20 44 -9 57 7 8 24 15 39
15 l26 -1 -27 -17z m-748 -44 c0 -2 -14 -3 -30 -4 -31 -1 -41 13 -15 22 8 4
12 11 8 18 -3 6 4 1 16 -11 11 -12 21 -23 21 -25z m650 31 c0 -4 7 -6 16 -5
18 1 68 -80 54 -89 -6 -3 -15 -3 -20 0 -6 4 -9 1 -8 -7 2 -7 -3 -12 -9 -10 -7
1 -13 -5 -13 -14 0 -18 -22 -14 -28 6 -3 8 0 10 8 5 10 -6 12 -4 7 7 -3 9 0
21 6 28 8 8 5 8 -10 -1 -34 -20 -36 -39 -7 -66 21 -19 24 -27 14 -38 -7 -8
-15 -13 -19 -10 -4 2 -23 -5 -41 -17 -25 -15 -31 -16 -21 -4 11 13 11 19 1 31
-6 8 -10 20 -7 27 3 8 10 2 18 -15 11 -23 14 -25 22 -12 5 10 16 14 30 11 12
-3 16 -3 9 0 -6 3 -9 11 -6 16 4 7 2 8 -4 4 -14 -8 -30 22 -27 53 1 23 31 54
44 47 3 -2 12 2 19 10 8 9 9 14 2 14 -6 0 -8 5 -4 12 4 7 3 8 -5 4 -6 -4 -9
-12 -6 -17 3 -5 -1 -6 -9 -3 -9 3 -14 10 -11 14 3 4 -1 10 -9 13 -9 4 -18 -8
-27 -35 -7 -22 -19 -42 -26 -45 -26 -10 -25 6 1 40 14 19 26 39 26 45 0 6 9
10 20 9 11 -1 20 -4 20 -8z m200 -8 c-8 -17 -15 -18 -42 -10 -18 5 -35 9 -38
10 -15 2 39 18 63 18 24 1 26 -1 17 -18z m-433 -35 c25 -24 31 -36 26 -55 -8
-34 -64 -82 -87 -75 -13 5 -16 3 -11 -6 5 -8 4 -11 -3 -6 -16 10 -4 32 18 32
10 0 16 -4 14 -8 -3 -4 -3 -8 0 -8 3 0 8 5 11 10 9 15 -37 30 -53 17 -10 -8
-12 -7 -10 3 6 26 22 39 35 28 9 -7 11 -4 8 12 -7 34 -10 34 -40 -2 -15 -18
-36 -33 -45 -34 -10 -1 -32 -11 -49 -23 -17 -12 -31 -19 -31 -15 0 3 -6 1 -14
-5 -17 -14 -29 0 -20 23 3 9 1 16 -6 16 -6 0 -8 -4 -5 -10 3 -5 1 -10 -6 -10
-7 0 -9 -3 -6 -7 4 -3 1 -13 -6 -21 -10 -13 -9 -14 3 -7 12 6 13 5 3 -5 -10
-11 -17 -10 -35 6 l-23 19 18 -21 c19 -23 23 -39 5 -28 -7 4 -8 3 -4 -4 4 -7
4 -12 0 -12 -13 0 -44 33 -44 47 0 7 -5 13 -12 13 -9 0 -9 3 0 12 10 10 15 10
21 -1 7 -10 23 0 67 43 32 31 53 56 48 56 -6 0 -19 -9 -29 -20 -10 -11 -22
-17 -28 -13 -6 4 -7 1 -2 -7 5 -9 4 -11 -3 -6 -7 4 -12 3 -12 -2 0 -9 -43 -32
-60 -32 -24 0 -7 29 21 35 17 4 41 16 53 26 11 11 28 26 37 34 9 8 22 15 30
15 8 1 31 7 52 14 20 8 37 10 37 5 0 -8 -40 -24 -53 -21 -5 1 -6 -2 -2 -8 3
-5 0 -10 -7 -10 -15 0 -53 -58 -44 -67 3 -4 6 -2 6 4 0 7 19 9 50 6 47 -4 51
-2 90 37 35 35 43 39 61 29 11 -6 18 -17 15 -24 -3 -9 0 -12 9 -9 10 4 12 -1
9 -18 -2 -13 -1 -16 2 -8 4 8 12 21 18 29 8 11 8 13 0 8 -6 -3 -17 5 -24 18
-14 26 -52 39 -94 31 -14 -3 -26 -1 -26 4 0 10 57 18 80 11 8 -2 29 -18 47
-35z m53 34 c0 -7 8 -7 23 1 17 9 20 9 11 -1 -19 -20 -80 -24 -87 -6 -5 12 0
16 23 16 17 0 30 -5 30 -10z m103 -11 c4 -15 2 -18 -7 -10 -14 11 -28 4 -43
-23 -10 -17 -10 -17 -16 3 -3 14 0 21 10 21 8 0 11 5 7 12 -5 8 -2 9 9 5 10
-3 17 -2 17 3 0 18 18 10 23 -11z m-283 -44 c0 -7 -7 -16 -16 -19 -8 -3 -12
-10 -9 -16 4 -6 -4 -5 -19 2 -14 6 -26 15 -26 20 0 5 8 4 19 -1 21 -12 31 -5
31 21 0 11 5 16 10 13 6 -3 10 -12 10 -20z m-282 -10 c2 -15 1 -17 -6 -6 -7 9
-20 12 -38 8 -16 -4 -23 -4 -15 0 11 5 11 7 0 15 -10 6 -3 8 21 6 26 -2 36 -8
38 -23z m545 13 c-12 -21 -12 -38 0 -38 7 0 6 -4 -2 -9 -10 -7 -19 -4 -27 7
-7 9 -16 14 -20 9 -4 -4 -2 -7 4 -7 7 0 12 -5 12 -12 0 -6 -3 -8 -7 -5 -3 4
-17 0 -30 -9 -24 -15 -24 -15 -21 18 3 30 6 33 38 34 18 1 36 6 38 13 2 6 8
11 13 11 6 0 7 -6 2 -12z m-583 -41 c0 6 9 9 21 6 14 -4 19 -12 16 -24 -3 -11
-1 -19 4 -19 5 0 9 -7 9 -16 0 -13 -3 -14 -14 -5 -9 8 -15 8 -18 2 -6 -19 -25
4 -32 39 -5 26 -4 31 3 20 6 -9 11 -10 11 -3z m1517 -9 c20 -42 22 -56 7 -68
-8 -7 -15 -24 -15 -39 -2 -28 -17 57 -18 102 -1 33 12 35 26 5z m-924 -43 c-4
-25 -2 -35 8 -35 25 0 -6 -20 -38 -24 -24 -2 -30 0 -26 11 3 8 13 13 22 10 13
-3 16 3 15 30 -1 18 2 30 7 27 5 -3 9 0 9 5 0 6 2 11 4 11 3 0 2 -16 -1 -35z
m-59 -39 c-16 -14 -35 -26 -41 -26 -7 0 -13 -6 -13 -14 0 -13 -47 -32 -57 -22
-10 10 17 42 38 43 24 2 48 19 27 20 -7 0 -22 4 -33 8 -16 5 -17 5 -5 -4 13
-9 13 -11 -2 -11 -16 0 -45 -36 -41 -51 1 -3 -5 -6 -13 -6 -7 0 -15 4 -15 9
-1 4 -3 13 -4 18 -1 6 -3 12 -4 15 0 3 -13 -6 -28 -20 -15 -14 -32 -25 -36
-25 -5 0 -7 -6 -4 -13 5 -15 -29 -21 -38 -7 -3 5 -13 6 -22 3 -12 -5 -15 -2
-10 10 3 9 2 17 -3 17 -6 0 -10 -5 -10 -12 0 -6 -3 -8 -6 -5 -4 4 -1 13 5 21
7 8 10 19 7 24 -3 5 8 22 24 37 17 16 30 24 30 18 0 -7 -11 -20 -24 -30 -19
-15 -21 -21 -10 -31 18 -16 29 -15 15 2 -9 11 -8 15 4 20 9 3 14 2 11 -3 -3
-4 4 -17 16 -27 12 -11 18 -13 14 -6 -4 6 -2 12 4 12 6 0 9 4 6 9 -4 5 3 7 15
4 19 -5 20 -4 9 16 -19 36 -3 37 27 2 32 -36 49 -41 32 -8 -6 12 -8 19 -4 15
4 -4 20 1 35 12 15 11 31 16 35 12 5 -4 5 -2 1 5 -10 17 13 27 30 12 12 -10
18 -9 32 5 16 16 17 15 26 -3 7 -16 2 -25 -20 -45z m-461 -2 c10 -11 -5 -34
-22 -34 -14 1 -14 2 2 15 18 13 17 14 -10 18 -27 4 -27 4 -2 6 14 0 28 -2 32
-5z m137 -28 c0 -7 -11 -21 -24 -30 -34 -22 -48 0 -16 26 27 22 40 23 40 4z
m890 -1101 c0 -8 -74 -74 -83 -75 -4 0 -17 -9 -29 -20 -26 -24 -40 -26 -32 -5
4 8 10 15 14 15 8 0 78 52 100 75 14 15 30 20 30 10z m-181 -133 c-41 -32
-100 -64 -105 -59 -3 2 21 21 53 41 61 38 92 48 52 18z"/>
<path d="M938 2023 c6 -2 12 -13 12 -23 0 -13 5 -17 19 -13 12 3 17 11 14 20
-4 10 -8 11 -13 3 -5 -8 -9 -7 -13 4 -4 9 -12 16 -19 15 -10 0 -10 -2 0 -6z"/>
<path d="M695 1930 c-3 -5 -3 -15 1 -21 4 -7 0 -9 -13 -5 -12 4 -25 1 -32 -8
-11 -13 -1 -15 64 -7 5 1 4 6 -3 13 -16 16 -16 33 1 21 18 -15 46 -12 40 4 -6
16 -23 17 -23 2 0 -8 -4 -8 -14 0 -10 8 -16 9 -21 1z"/>
<path d="M1878 1923 c-22 -6 -23 -29 -2 -37 24 -9 77 -7 94 4 13 9 12 12 -4
25 -19 15 -52 18 -88 8z"/>
<path d="M1646 1892 c-6 -11 94 -63 106 -56 4 3 5 10 2 16 -4 7 -2 8 4 4 6 -4
9 -13 5 -21 -3 -8 -1 -15 5 -15 6 0 17 -2 25 -5 8 -4 14 0 14 10 0 16 -50 49
-60 39 -2 -3 -20 4 -38 15 -36 22 -55 26 -63 13z"/>
<path d="M1580 1866 c0 -20 25 -48 34 -39 3 4 6 15 6 26 0 11 -3 17 -7 14 -3
-4 -12 -2 -20 4 -10 9 -13 8 -13 -5z"/>
<path d="M1667 1823 c-13 -13 -7 -25 7 -14 11 9 16 9 22 0 4 -8 3 -9 -4 -5 -7
4 -12 2 -12 -4 0 -7 7 -9 16 -6 9 3 18 6 21 6 3 0 0 7 -7 15 -13 16 -32 19
-43 8z"/>
<path d="M409 1787 c-20 -15 -35 -57 -20 -57 6 0 11 5 11 11 0 5 4 7 10 4 6
-4 7 1 3 11 -4 11 -2 15 4 11 6 -4 13 0 17 8 7 20 -6 26 -25 12z"/>
<path d="M1949 1786 c9 -11 9 -15 -1 -18 -9 -3 1 -22 28 -59 23 -30 51 -74 63
-98 26 -51 61 -181 61 -228 0 -33 16 -45 26 -19 3 8 0 46 -6 83 -6 37 -12 77
-13 88 -1 11 -4 22 -7 25 -23 22 -38 62 -35 90 4 31 4 32 -11 14 -12 -15 -15
-15 -11 -3 7 21 -21 62 -37 56 -7 -3 -18 4 -25 15 -7 11 -8 17 -2 13 18 -11
12 21 -7 38 -23 21 -39 22 -23 3z"/>
<path d="M1856 1781 c-14 -5 -16 -10 -8 -15 7 -4 16 -5 21 -1 5 3 18 -5 28
-17 23 -29 54 -39 32 -11 -17 22 -47 53 -51 52 -2 0 -12 -4 -22 -8z"/>
<path d="M2162 1758 c7 -19 38 -22 38 -4 0 10 -9 16 -21 16 -12 0 -19 -5 -17
-12z"/>
<path d="M292 1689 c-21 -8 -54 -34 -52 -41 1 -2 -2 -11 -6 -21 -12 -33 3 -29
25 7 12 19 31 38 41 41 11 4 20 11 20 16 0 5 -1 9 -2 8 -2 0 -13 -4 -26 -10z"/>
<path d="M369 1668 c-7 -18 -15 -37 -17 -43 -3 -5 3 -3 13 5 18 15 18 14 1
-16 -14 -23 -24 -30 -40 -27 -12 3 -47 -2 -78 -10 -54 -14 -137 -15 -157 -2
-6 3 -8 12 -4 20 8 24 -11 17 -36 -11 -22 -25 -22 -26 -2 -19 14 4 27 0 38
-10 13 -14 26 -16 62 -10 25 4 79 10 119 13 l72 7 0 -29 c0 -32 15 -26 22 9 2
11 8 20 15 20 6 0 15 4 20 9 5 5 3 6 -4 2 -9 -5 -13 0 -13 16 0 19 2 20 10 8
7 -11 8 -5 4 18 -5 24 -2 38 12 55 10 12 15 19 10 15 -5 -4 -15 -3 -21 2 -10
8 -16 2 -26 -22z"/>
<path d="M1714 1517 c3 -10 6 -48 6 -83 0 -35 4 -64 8 -64 11 0 2 143 -10 155
-8 7 -9 4 -4 -8z"/>
<path d="M1780 1526 c0 -5 80 -51 105 -60 17 -6 17 -4 -5 21 -14 15 -29 33
-33 38 -6 6 -6 0 -2 -14 l7 -24 -27 21 c-25 20 -45 28 -45 18z"/>
<path d="M160 1511 c0 -10 59 -23 71 -15 19 11 7 20 -31 21 -22 1 -40 -2 -40
-6z"/>
<path d="M1675 1491 c-3 -5 -7 -35 -10 -65 -3 -44 -1 -56 11 -56 16 0 18 -18
4 -54 -16 -42 -40 -33 -40 14 0 41 -5 46 -29 31 -10 -6 -10 -10 -1 -16 9 -6 9
-10 -1 -16 -12 -7 -12 -9 0 -9 7 0 11 -6 7 -15 -3 -9 0 -15 9 -15 8 0 15 -4
15 -10 0 -5 9 -10 20 -10 14 0 18 -5 14 -17 -4 -14 -2 -13 7 2 17 26 23 183 8
201 -6 8 -9 21 -5 29 6 16 1 20 -9 6z"/>
<path d="M1750 1490 c0 -5 4 -10 10 -10 5 0 7 -8 3 -17 -5 -17 -5 -17 13 0 16
15 17 19 4 27 -19 13 -30 12 -30 0z"/>
<path d="M307 1458 c-10 -11 -17 -21 -15 -24 8 -7 58 21 55 30 -6 17 -22 15
-40 -6z"/>
<path d="M1840 1454 c0 -4 7 -12 17 -19 10 -8 18 -32 21 -69 5 -62 22 -77 22
-18 0 55 -9 79 -36 97 -13 8 -24 12 -24 9z"/>
<path d="M274 1363 c-8 -43 -21 -55 -48 -47 -13 4 -16 2 -11 -6 12 -19 -15
-62 -31 -49 -9 7 -14 6 -20 -3 -4 -7 -4 -10 0 -6 5 4 14 2 21 -5 10 -9 9 -14
-4 -24 -13 -9 -14 -14 -3 -24 14 -15 16 -33 3 -25 -5 3 -11 -3 -14 -14 -3 -11
-1 -18 4 -14 5 3 9 -4 9 -15 0 -15 -4 -19 -17 -14 -17 7 -17 6 0 -11 18 -19
23 -51 8 -60 -5 -3 -11 -15 -14 -26 -3 -11 -1 -18 4 -15 4 3 7 -8 6 -25 -2
-24 -6 -30 -25 -30 -14 0 -22 -5 -20 -12 3 -7 15 -13 29 -13 14 0 25 -7 27
-17 2 -10 -1 -18 -7 -18 -6 0 -9 -6 -7 -12 1 -7 1 -10 -1 -5 -3 4 -31 7 -64 7
-46 0 -59 -3 -59 -15 0 -9 -10 -20 -22 -25 l-23 -9 23 0 c12 -1 25 6 29 15 3
9 13 14 24 11 11 -3 21 -1 24 3 7 11 47 4 55 -11 4 -6 15 -9 24 -7 14 3 16 26
19 173 5 229 24 286 102 301 57 10 79 -2 130 -71 73 -99 147 -145 234 -145 83
0 136 -70 129 -169 -3 -46 -13 -72 -50 -134 l-46 -76 35 -12 c29 -9 37 -8 54
7 10 9 19 21 19 26 0 5 16 31 35 59 43 62 45 78 6 47 -17 -13 -29 -27 -27 -32
1 -6 -5 -18 -13 -27 -33 -37 -42 -49 -34 -49 4 0 0 -5 -10 -11 -33 -19 -29 -2
19 81 43 76 67 150 44 135 -6 -4 -7 1 -3 11 5 15 7 15 15 0 5 -9 6 -21 3 -26
-3 -6 -4 -10 -1 -10 2 0 14 15 26 34 28 46 162 120 202 112 19 -4 26 -2 22 7
-5 13 -66 18 -74 6 -3 -3 -33 -20 -66 -37 -34 -17 -71 -44 -83 -59 -12 -15
-18 -20 -15 -10 4 11 2 17 -6 15 -7 -2 -14 5 -15 15 -2 9 2 17 7 17 11 0 -15
25 -62 61 l-25 18 75 1 c87 0 122 14 65 24 -23 5 -42 3 -48 -3 -15 -15 -27
-14 -27 4 0 9 -9 15 -22 14 -22 0 -22 -1 -3 -9 13 -5 -7 -8 -56 -7 -43 1 -75
5 -73 8 2 4 -3 10 -12 13 -10 4 -13 2 -8 -6 5 -8 0 -9 -17 -4 -13 3 -36 9 -51
12 -28 7 -134 102 -124 112 3 2 12 -1 21 -8 8 -7 15 -9 15 -4 1 5 9 -1 20 -14
10 -12 22 -21 27 -20 4 1 35 -6 68 -16 68 -20 137 -27 128 -13 -4 6 18 8 58 4
71 -7 200 12 206 29 3 8 -10 8 -44 -1 -26 -7 -70 -15 -98 -18 -46 -6 -44 -5
23 14 87 25 89 35 4 19 -77 -15 -240 -8 -308 14 -61 19 -158 81 -173 110 -10
19 -11 19 -5 -4 7 -23 4 -23 -39 13 -25 20 -50 37 -56 37 -5 0 -13 -17 -17
-37z"/>
<path d="M1343 1353 l-23 -34 28 -10 c15 -6 29 -11 31 -12 2 -1 5 6 7 16 2 14
-1 16 -10 7 -10 -7 -17 -6 -26 5 -11 14 -10 17 9 22 17 4 19 8 9 14 -9 6 -9 9
-1 9 7 0 16 -7 21 -16 5 -9 14 -14 21 -10 18 11 13 21 -17 32 -25 9 -29 7 -49
-23z"/>
<path d="M1564 1349 l-19 -22 25 7 c14 3 19 3 13 0 -15 -6 -18 -44 -4 -44 12
0 21 52 12 68 -5 10 -12 7 -27 -9z"/>
<path d="M1706 1278 c-13 -132 -81 -314 -162 -440 -43 -68 -50 -91 -12 -43 11
14 24 23 29 20 5 -4 6 1 3 9 -3 8 10 41 28 73 59 101 128 309 130 394 1 16 5
29 10 29 5 0 6 5 3 10 -14 22 -22 7 -29 -52z"/>
<path d="M2106 1256 c-4 -47 -13 -109 -21 -138 l-13 -53 30 -25 30 -25 -26
-64 c-14 -36 -26 -68 -26 -73 0 -4 14 -8 30 -8 17 0 30 5 30 10 0 6 -7 10 -15
10 -8 0 -15 7 -15 15 0 8 5 15 11 15 6 0 8 9 4 21 -5 15 -4 19 4 15 7 -5 11 2
11 16 0 13 6 30 13 37 10 11 9 12 -2 6 -10 -6 -12 -2 -7 16 3 13 3 18 0 11 -8
-17 -24 -5 -17 13 3 8 0 15 -7 15 -6 0 -8 -4 -5 -10 3 -6 -1 -7 -10 -4 -14 6
-14 8 2 21 10 8 12 11 4 7 -11 -5 -13 -2 -8 17 4 13 7 30 7 37 0 7 5 10 12 6
8 -5 9 11 4 60 -4 40 -3 73 3 80 6 7 5 19 -3 35 -12 21 -14 15 -20 -63z"/>
<path d="M1190 1305 c-25 -14 -39 -25 -32 -25 15 0 92 38 92 45 0 9 -15 4 -60
-20z"/>
<path d="M1852 1301 c54 -35 60 -37 52 -17 -5 13 -17 19 -79 41 -11 4 1 -7 27
-24z"/>
<path d="M1106 1271 c-4 -6 0 -11 10 -11 13 0 14 -3 4 -15 -9 -11 -9 -15 -1
-15 7 0 9 -4 6 -10 -8 -13 5 -13 25 0 13 8 11 13 -11 36 -17 17 -29 22 -33 15z"/>
<path d="M1868 1247 c13 -15 9 -91 -6 -127 -9 -22 -11 -23 -12 -5 -1 11 -4 15
-6 8 -3 -7 0 -22 7 -35 6 -13 8 -19 3 -15 -8 8 -30 -58 -41 -125 -3 -24 -11
-38 -20 -38 -9 0 -13 -6 -10 -14 3 -8 1 -16 -4 -18 -5 -2 -11 -15 -13 -29 -3
-35 -43 -89 -61 -83 -14 6 -15 -12 -2 -33 10 -16 2 -16 -24 -3 -10 6 -19 18
-19 26 0 9 5 12 12 8 8 -5 9 -2 5 10 -4 10 -7 21 -7 24 0 4 -7 -6 -15 -22 -18
-35 -19 -53 -2 -59 9 -3 9 -9 -1 -27 -12 -20 -12 -22 2 -17 15 6 15 4 0 -18
-19 -29 -26 -32 -18 -7 4 11 -1 8 -15 -8 -11 -14 -19 -34 -18 -45 1 -12 -4
-20 -13 -20 -16 0 -102 -87 -94 -95 3 -2 9 2 14 10 6 8 10 11 10 7 0 -15 -61
-67 -71 -61 -5 3 -18 -1 -29 -9 -18 -12 -19 -16 -5 -27 24 -20 167 114 260
245 117 165 192 350 215 527 6 54 6 75 -3 80 -19 12 -30 9 -19 -5z"/>
<path d="M1592 1241 c-6 -4 -10 -20 -9 -36 2 -30 2 -30 -53 -31 -30 0 -63 -4
-72 -8 -10 -5 -36 -6 -58 -4 -33 3 -40 0 -40 -14 0 -11 7 -17 18 -16 9 1 29 0
45 0 24 -2 27 -6 27 -35 0 -18 6 -39 13 -46 10 -11 9 -13 -4 -9 -8 3 -26 0
-39 -7 -22 -12 -18 -13 33 -11 31 0 57 4 57 8 0 4 7 5 15 2 8 -3 22 2 32 11
11 11 18 14 21 6 6 -17 -29 -112 -39 -105 -5 3 -9 1 -9 -5 0 -5 4 -12 10 -16
14 -9 0 -34 -16 -28 -17 6 -18 46 -3 74 6 12 7 28 4 37 -6 15 -8 14 -15 -5 -5
-12 -17 -22 -27 -22 -55 1 -93 -14 -93 -35 0 -21 53 -16 68 5 17 24 28 24 35
0 5 -22 -59 -155 -102 -210 -46 -60 -47 -68 -4 -33 22 17 48 32 56 32 34 0
150 206 196 348 42 129 44 142 26 142 -9 0 -15 -9 -15 -24 0 -13 -7 -29 -15
-36 -8 -7 -15 -19 -15 -26 0 -8 -4 -14 -9 -14 -5 0 -14 -13 -19 -29 -9 -24
-16 -29 -58 -34 -59 -6 -64 -4 -64 33 0 36 3 38 72 42 31 1 55 5 52 7 -2 2 1
10 7 18 7 7 9 27 5 46 -4 20 -3 27 3 18 5 -8 11 -9 15 -3 7 12 -17 23 -32 13z"/>
<path d="M241 1201 c-17 -13 -22 -24 -17 -36 8 -21 26 -9 30 21 4 27 26 23 49
-8 14 -18 18 -34 13 -52 l-7 -27 -34 27 c-43 32 -46 16 -5 -23 l31 -29 -26 -2
c-14 -1 -24 2 -21 7 3 5 -1 12 -10 15 -8 3 -14 11 -13 18 3 26 -1 39 -11 33
-24 -15 3 -96 36 -109 43 -17 74 24 74 98 0 32 -6 48 -23 64 -28 27 -35 27
-66 3z"/>
<path d="M1340 1211 c-8 -3 -14 -15 -14 -26 1 -11 2 -33 3 -48 1 -31 21 -28
21 4 0 10 6 28 12 39 14 23 1 41 -22 31z"/>
<path d="M1158 1105 c-11 -22 -13 -32 -5 -29 19 7 40 45 30 54 -4 5 -16 -7
-25 -25z"/>
<path d="M1981 1103 c-2 -24 18 -60 36 -67 16 -5 16 -5 -1 9 -13 10 -15 15 -6
15 11 0 10 3 -2 13 -9 6 -18 19 -21 27 -3 8 -6 10 -6 3z"/>
<path d="M843 1063 c-17 -6 9 -33 31 -33 21 0 66 21 66 32 0 11 -7 10 -39 -6
-19 -10 -31 -12 -42 -4 -11 8 -11 9 3 4 10 -3 19 -2 22 2 5 9 -23 12 -41 5z"/>
<path d="M2060 1030 c0 -13 7 -20 20 -20 11 0 20 3 20 8 0 4 -9 13 -20 20 -18
11 -20 10 -20 -8z"/>
<path d="M560 980 c-11 -11 -17 -26 -14 -34 3 -8 1 -17 -4 -20 -16 -10 5 -79
29 -98 35 -29 66 -22 88 19 29 57 -5 153 -56 153 -2 0 7 -14 21 -31 14 -17 26
-42 26 -55 0 -24 0 -24 -32 -8 -46 24 -59 39 -45 53 11 11 19 41 11 41 -2 0
-13 -9 -24 -20z m50 -95 c17 -9 30 -23 30 -31 0 -32 -78 6 -80 39 0 11 18 8
50 -8z"/>
<path d="M0 938 c0 -14 8 -18 35 -18 26 0 33 3 29 15 -7 18 -16 19 -32 3 -10
-10 -15 -10 -22 2 -8 13 -10 12 -10 -2z"/>
<path d="M1455 925 c-3 -11 -11 -29 -17 -39 -63 -116 -78 -140 -85 -133 -2 2
8 25 23 50 32 58 26 61 -10 6 -16 -24 -25 -47 -21 -58 3 -11 0 -25 -7 -32 -22
-23 -49 -69 -41 -69 14 1 38 24 41 40 2 8 23 44 46 80 56 83 88 148 83 163 -3
7 -8 3 -12 -8z"/>
<path d="M1300 904 c-14 -8 -44 -14 -67 -14 -40 0 -63 -13 -48 -28 3 -3 9 -1
13 5 4 6 41 13 82 16 89 6 113 11 117 23 5 14 -70 13 -97 -2z"/>
<path d="M880 848 c0 -27 2 -28 55 -28 42 0 55 3 55 15 0 16 -7 18 -59 15 -19
-1 -37 4 -42 12 -6 9 -9 4 -9 -14z"/>
<path d="M1120 860 c0 -5 -22 -10 -49 -10 -28 0 -52 -4 -55 -8 -5 -9 130 -10
138 -1 3 3 -4 10 -14 17 -12 7 -20 8 -20 2z"/>
<path d="M1585 839 c-11 -4 -15 -8 -8 -8 6 -1 9 -10 6 -22 -3 -11 -11 -18 -19
-15 -7 3 -16 0 -20 -6 -5 -7 -2 -8 6 -3 10 6 12 4 7 -7 -5 -15 9 -38 24 -38 4
0 10 7 13 16 5 12 1 14 -17 9 -12 -3 -17 -3 -12 2 17 13 47 63 43 72 -2 5 -12
5 -23 0z"/>
<path d="M2040 839 c0 -6 -7 -9 -14 -6 -10 4 -13 1 -10 -8 3 -7 1 -23 -6 -34
-8 -16 -8 -21 1 -21 8 0 8 -4 -1 -15 -7 -8 -8 -15 -3 -15 6 0 19 22 31 49 17
42 23 48 46 46 14 -2 26 0 26 4 0 4 -16 8 -35 9 -19 1 -35 -3 -35 -9z"/>
<path d="M2130 826 c1 -38 14 -56 41 -56 26 0 29 3 29 35 0 33 -1 34 -35 33
-19 -1 -35 -6 -35 -12z"/>
<path d="M221 803 c1 -10 5 -29 9 -43 7 -21 8 -19 9 18 1 23 -3 42 -9 42 -5 0
-10 -8 -9 -17z"/>
<path d="M161 786 c-10 -12 -8 -14 11 -9 13 3 19 1 13 -4 -14 -11 -15 -45 -1
-40 14 5 15 59 0 64 -6 2 -16 -3 -23 -11z"/>
<path d="M1198 779 c-3 -8 -3 -45 0 -83 4 -56 8 -69 23 -73 11 -3 19 -10 19
-15 0 -5 5 -6 11 -3 6 4 8 13 5 20 -3 8 13 36 35 63 42 54 47 64 24 56 -11 -5
-14 -1 -10 12 4 11 -4 0 -17 -24 -19 -33 -26 -40 -36 -30 -9 9 -12 5 -12 -19
0 -58 -15 -42 -18 20 -3 64 -15 101 -24 76z"/>
<path d="M1042 765 l-23 -12 28 -6 c30 -6 49 5 39 22 -9 13 -14 13 -44 -4z"/>
<path d="M2037 741 c-15 -30 -15 -31 9 -31 20 0 24 4 21 25 -5 37 -13 39 -30
6z"/>
<path d="M234 686 c0 -24 4 -42 9 -39 4 2 7 -7 7 -21 0 -14 -5 -26 -12 -26 -6
0 -4 -6 5 -13 10 -7 20 -31 23 -56 3 -25 10 -54 16 -65 19 -36 101 -116 149
-148 l47 -30 -2 -92 -1 -91 -50 3 c-27 1 -52 7 -53 12 -2 6 -9 7 -15 3 -9 -5
-9 -3 -1 8 6 8 13 23 16 34 5 19 1 20 -63 17 l-69 -4 4 -31 c3 -18 5 -35 5
-39 2 -14 46 -1 46 13 0 8 10 15 22 17 19 3 22 -1 20 -27 -1 -20 -7 -29 -14
-27 -7 3 -10 -1 -7 -9 8 -21 36 -6 29 15 -6 18 8 22 30 9 6 -4 18 -5 28 -4 9
2 17 -2 17 -8 0 -5 3 -7 7 -4 3 4 13 1 21 -6 13 -10 15 -9 10 4 -4 9 -1 16 8
16 18 0 26 -24 11 -34 -23 -14 -45 -10 -39 6 4 13 2 13 -15 -2 -22 -19 -34
-14 -26 11 4 15 3 15 -10 0 -8 -10 -16 -15 -19 -13 -11 12 -27 -21 -17 -35 8
-13 9 -12 7 2 -2 9 1 16 7 15 5 -1 9 -13 8 -27 l-2 -25 7 25 c7 23 11 25 66
22 l58 -4 -4 29 c-2 23 1 28 19 27 25 -1 35 16 22 37 -7 12 -10 12 -21 0 -9
-10 -10 -12 -1 -7 9 5 11 2 6 -10 -4 -12 -8 -14 -11 -6 -3 10 -7 10 -20 0 -15
-11 -15 -11 -4 3 17 22 23 57 11 64 -5 4 -9 11 -9 16 0 6 4 8 8 5 4 -2 8 8 7
24 0 15 -4 26 -9 23 -5 -3 -7 0 -4 7 2 7 11 14 20 16 9 1 15 -3 12 -10 -3 -7
5 -12 17 -13 19 -2 17 3 -17 40 -42 44 -78 75 -80 67 -1 -3 -11 4 -23 14 -14
12 -21 15 -21 6 0 -24 -76 66 -97 115 -12 28 -29 92 -38 143 -19 100 -33 128
-31 58z"/>
<path d="M1533 711 c-6 -23 -19 -28 -25 -9 -3 8 -7 6 -11 -5 -3 -9 -3 -16 2
-14 4 1 20 -13 35 -30 15 -18 36 -33 47 -33 27 0 24 14 -7 30 -20 11 -25 20
-21 43 4 33 -12 49 -20 18z"/>
<path d="M1971 704 c-15 -19 -26 -24 -42 -19 -21 7 -39 -7 -39 -30 0 -5 4 -4
9 4 8 12 11 12 24 0 11 -11 12 -20 4 -44 -11 -32 -55 -80 -65 -71 -3 4 -23
-20 -44 -51 -40 -61 -54 -100 -15 -46 12 18 28 33 34 33 7 0 20 11 29 25 11
17 25 25 46 25 16 0 37 4 47 10 16 8 17 14 6 57 -10 40 -10 49 1 51 14 4 44
52 44 72 0 18 -18 11 -39 -16z"/>
<path d="M2175 691 c3 -11 1 -22 -5 -26 -16 -10 -12 -55 5 -62 21 -7 33 6 16
16 -9 6 -10 11 -2 15 18 11 14 76 -5 76 -11 0 -13 -6 -9 -19z"/>
<path d="M516 665 c-11 -8 -16 -15 -10 -15 5 0 2 -5 -6 -10 -9 -6 -10 -10 -3
-10 7 0 17 9 23 20 12 23 35 27 26 5 -3 -8 -1 -15 4 -15 6 0 10 9 10 20 0 23
-17 25 -44 5z"/>
<path d="M988 635 c-2 -19 0 -35 4 -35 5 0 8 -6 7 -12 -1 -7 -1 -29 1 -48 1
-29 3 -32 10 -15 8 20 9 19 9 -1 1 -12 -7 -28 -16 -35 -11 -10 -14 -10 -9 -1
4 6 2 12 -3 12 -6 0 -11 -4 -11 -8 0 -4 -9 -8 -21 -9 -16 -2 -20 3 -16 18 3
10 1 19 -4 19 -5 0 -9 -4 -9 -10 0 -5 -4 -10 -9 -10 -5 0 -12 23 -16 51 -5 35
-10 47 -16 38 -7 -11 -12 -12 -28 -2 -14 9 -21 9 -23 1 -2 -6 -16 -10 -31 -10
-15 0 -27 -4 -27 -9 0 -5 -7 -9 -16 -9 -8 0 -12 5 -9 10 3 6 -3 10 -15 10 -13
0 -19 4 -14 12 5 7 3 8 -5 4 -7 -5 -10 -14 -7 -22 3 -8 -1 -14 -9 -14 -7 0
-17 -5 -21 -12 -5 -8 20 -10 99 -5 79 4 107 3 108 -6 1 -7 0 -29 -1 -49 -1
-36 0 -38 30 -38 17 0 40 5 51 10 11 7 19 7 19 1 0 -5 8 -8 18 -6 9 2 20 4 24
4 8 1 -2 160 -13 189 -12 33 -26 27 -31 -13z"/>
<path d="M1846 601 c-16 -34 -33 -61 -38 -61 -5 0 -6 -4 -3 -10 3 -5 1 -10 -4
-10 -6 0 -11 -5 -11 -11 0 -19 17 0 54 62 20 34 36 68 34 76 -2 8 -16 -13 -32
-46z"/>
<path d="M1411 625 c-13 -14 -37 -32 -55 -40 -39 -19 -132 -102 -123 -111 3
-4 12 0 20 7 7 8 29 26 48 41 19 14 58 45 87 68 28 22 52 45 52 50 0 14 -2 13
-29 -15z"/>
<path d="M1317 622 c-10 -10 -14 -22 -10 -25 6 -7 0 -9 -29 -11 -19 -1 -45
-29 -41 -42 2 -6 -3 -14 -13 -18 -12 -5 -15 -2 -10 11 5 13 0 10 -17 -7 -35
-36 -23 -55 16 -27 45 32 137 119 137 128 0 15 -16 10 -33 -9z"/>
<path d="M528 600 c-3 -19 -1 -29 6 -27 14 4 21 57 8 57 -5 0 -12 -14 -14 -30z"/>
<path d="M1430 596 c0 -8 -9 -17 -19 -21 -11 -3 -25 -12 -31 -20 -10 -12 -9
-16 6 -21 11 -4 25 -12 32 -18 23 -17 49 -17 63 2 11 14 11 15 -1 5 -18 -16
-34 -17 -24 -1 4 6 0 16 -9 23 -22 16 -12 54 13 48 10 -3 21 0 24 6 5 7 -4 11
-23 11 -20 0 -31 -5 -31 -14z"/>
<path d="M590 590 c-1 -3 -3 -27 -5 -55 -3 -46 -2 -47 7 -16 7 27 6 89 -2 71z"/>
<path d="M2098 583 c-21 -3 -28 -10 -28 -26 0 -44 14 -53 65 -39 26 7 51 10
56 7 5 -4 9 -1 9 4 0 6 -4 11 -10 11 -5 0 -10 11 -10 25 0 26 -11 29 -82 18z"/>
<path d="M1513 571 c-17 -5 -20 -10 -13 -21 8 -13 11 -13 27 2 20 21 16 27
-14 19z"/>
<path d="M524 524 c-8 -44 3 -145 17 -159 8 -7 9 0 4 25 -4 19 -8 65 -7 103 0
37 -2 67 -4 67 -1 0 -6 -16 -10 -36z"/>
<path d="M1724 540 c-12 -5 -33 -20 -47 -34 -17 -17 -32 -24 -43 -19 -10 4
-15 2 -11 -3 10 -17 -11 -37 -40 -39 -21 -1 -53 -21 -104 -64 -41 -35 -81 -66
-89 -69 -8 -3 -29 -16 -46 -29 -17 -13 -35 -23 -41 -23 -6 0 -21 -8 -34 -19
-26 -20 -121 -55 -196 -71 -67 -16 -170 -13 -228 4 -27 8 -51 13 -54 11 -5 -6
64 -35 83 -35 8 0 17 -4 20 -8 6 -9 148 -8 164 2 6 4 23 4 37 0 16 -4 25 -2
25 5 0 17 43 31 53 17 5 -7 13 -4 24 11 15 23 40 33 27 12 -4 -7 3 -6 17 2 13
7 30 14 37 15 26 4 63 35 56 46 -5 8 -1 9 10 5 19 -8 70 19 114 59 14 13 29
24 33 24 5 0 9 5 9 12 0 9 -3 9 -12 0 -17 -17 -33 -15 -18 3 7 9 21 13 31 10
9 -3 20 -1 24 5 3 6 12 7 18 4 7 -4 9 -4 5 1 -5 5 2 13 15 20 12 6 21 17 19
24 -1 7 2 10 7 7 5 -3 14 1 21 10 7 8 19 13 26 10 7 -3 18 3 26 12 12 15 11
16 -4 3 -11 -8 -18 -9 -18 -3 0 6 9 16 19 22 26 13 34 13 25 -2 -4 -7 -3 -8 4
-4 6 4 8 14 5 23 -4 11 -3 14 5 9 7 -4 12 -1 12 8 0 9 6 16 14 16 8 0 18 5 21
10 7 12 7 12 -21 0z"/>
<path d="M1130 531 c0 -5 -16 -19 -36 -30 -20 -12 -34 -25 -30 -28 9 -9 88 46
81 57 -8 12 -15 13 -15 1z"/>
<path d="M1120 471 c-8 -8 -15 -20 -15 -26 0 -5 -10 -9 -22 -8 -20 2 -51 -22
-41 -32 6 -6 71 27 107 54 22 17 22 18 4 23 -10 3 -25 -2 -33 -11z"/>
<path d="M1295 480 c-56 -53 -103 -76 -91 -44 3 8 2 12 -4 9 -12 -8 -13 -32
-1 -39 13 -8 73 24 95 50 19 24 33 21 77 -14 13 -10 19 -10 30 5 10 12 11 15
1 9 -8 -5 -20 0 -31 13 -19 22 -58 27 -76 11z"/>
<path d="M665 460 c-3 -5 0 -10 7 -10 9 0 9 -3 -2 -10 -13 -9 -13 -11 0 -20
21 -13 45 17 29 37 -14 16 -26 17 -34 3z"/>
<path d="M107 428 c-8 -28 -5 -31 18 -14 10 7 15 18 11 24 -11 18 -23 14 -29
-10z"/>
<path d="M0 428 c0 -11 12 -17 40 -20 22 -2 40 0 40 4 0 5 -13 8 -28 8 -15 0
-33 5 -40 12 -9 9 -12 8 -12 -4z"/>
<path d="M154 416 c5 -19 1 -25 -17 -31 -32 -10 -66 -12 -61 -3 4 6 -66 -1
-75 -8 -2 -2 0 -11 3 -21 6 -15 8 -15 16 -3 8 13 10 13 10 -2 0 -9 -5 -18 -11
-20 -18 -6 -21 -88 -4 -94 21 -9 38 5 26 20 -6 7 -8 16 -4 20 4 3 6 24 5 45
l-3 38 51 -3 c41 -2 52 1 60 17 7 12 21 19 39 19 17 0 31 6 35 16 9 24 8 25
-24 19 -17 -3 -30 -1 -30 5 0 5 -5 10 -11 10 -7 0 -9 -9 -5 -24z"/>
<path d="M920 413 c-18 -8 -44 -33 -33 -33 4 0 31 9 58 20 44 17 46 19 20 19
-16 0 -37 -3 -45 -6z"/>
<path d="M239 380 c-3 -8 -5 -33 -5 -55 l1 -40 47 0 c28 0 44 4 40 10 -3 6 1
5 9 -2 9 -7 20 -9 29 -3 13 8 12 12 -5 24 -13 9 -24 11 -31 5 -23 -19 -54 -18
-64 1 -7 13 -7 21 2 26 7 5 8 3 3 -7 -5 -8 -5 -11 0 -7 4 4 13 4 19 -2 8 -6
12 -3 13 11 1 11 -4 19 -10 18 -26 -3 -36 2 -39 19 -3 14 -5 14 -9 2z"/>
<path d="M580 367 c0 -15 4 -35 9 -45 5 -9 20 -42 34 -72 14 -30 36 -61 49
-68 l23 -13 -21 19 c-12 10 -38 61 -58 113 -23 62 -35 85 -36 66z"/>
<path d="M2151 381 c-12 -8 -13 -12 -1 -25 12 -15 14 -15 31 0 11 10 19 21 19
26 0 11 -31 10 -49 -1z"/>
<path d="M891 299 c-13 -5 -40 -7 -60 -4 -29 4 -32 3 -14 -4 12 -6 31 -19 42
-30 12 -12 27 -18 37 -14 13 5 10 8 -12 18 l-29 12 45 15 c25 9 38 16 30 17
-8 0 -26 -5 -39 -10z"/>
<path d="M966 300 c6 -6 25 -15 43 -20 33 -9 33 -9 16 10 -10 11 -30 20 -44
20 -17 0 -22 -3 -15 -10z"/>
<path d="M750 275 c13 -14 31 -25 39 -25 11 0 8 7 -11 25 -15 14 -33 25 -39
25 -7 0 -2 -11 11 -25z"/>
<path d="M2075 289 c-24 -5 -19 -14 6 -11 4 1 9 -12 13 -28 8 -41 21 -38 20 5
-1 43 -1 43 -39 34z"/>
<path d="M1794 270 c0 -15 7 -20 26 -20 21 0 65 18 50 21 -3 0 -13 2 -23 4 -9
2 -15 -1 -11 -6 3 -5 1 -9 -4 -9 -6 0 -12 7 -16 15 -8 22 -22 18 -22 -5z"/>
<path d="M1603 253 c-18 -2 -33 -9 -33 -14 0 -10 76 -1 100 12 16 9 -5 10 -67
2z"/>
<path d="M1638 232 c-21 -2 -38 -7 -38 -12 0 -8 69 -2 79 6 8 7 -4 9 -41 6z"/>
<path d="M1914 213 c7 -28 5 -30 -26 -31 -80 -2 -116 -7 -112 -14 6 -10 103
-8 131 3 25 9 33 52 12 65 -8 4 -9 -3 -5 -23z"/>
<path d="M1765 220 c4 -6 -6 -7 -27 -4 -25 5 -30 4 -22 -5 6 -7 25 -14 43 -16
25 -3 31 -1 31 15 0 11 -7 20 -16 20 -8 0 -12 -4 -9 -10z"/>
<path d="M596 182 c-3 -6 5 -17 19 -26 14 -9 25 -13 25 -10 0 4 9 -1 20 -11
11 -10 22 -16 25 -13 8 8 -19 39 -37 41 -9 2 -23 9 -31 15 -9 8 -18 9 -21 4z"/>
<path d="M120 91 c0 -29 -1 -30 -47 -27 -51 3 -73 -1 -73 -14 0 -4 26 -6 58
-4 40 3 51 1 37 -6 -11 -5 -14 -9 -7 -9 6 -1 12 -9 13 -18 0 -12 4 -8 10 9 7
19 16 26 29 23 11 -2 22 1 26 6 4 6 11 5 20 -2 9 -7 14 -8 12 -3 -2 5 2 9 7 9
6 0 9 -3 8 -7 -2 -4 4 -5 12 -2 8 4 15 10 15 16 0 5 -4 7 -9 3 -5 -3 -13 0
-17 6 -5 9 0 10 14 7 12 -4 25 -2 28 3 3 5 -4 9 -16 9 -12 0 -19 4 -16 9 8 12
-9 17 -61 20 -41 2 -43 1 -43 -28z m63 6 c26 4 27 2 16 -18 -11 -22 -12 -22
-25 -4 -13 18 -14 18 -14 -5 0 -29 -18 -15 -25 19 -3 17 -1 20 8 13 7 -5 25
-7 40 -5z"/>
<path d="M1615 63 c4 -47 21 -78 29 -52 15 47 12 69 -9 83 -22 15 -23 14 -20
-31z"/>
<path d="M1558 48 c-2 -5 -19 -12 -37 -14 -18 -2 -37 -7 -43 -11 -6 -3 -50 -9
-97 -13 l-86 -7 103 -2 c58 0 102 3 102 8 0 6 23 11 50 13 49 3 50 4 31 20
-12 10 -21 12 -23 6z"/>
</g>
</svg>
